<?xml version="1.0" encoding="utf-8"?>
<!-- Generator: Adobe Illustrator 26.0.3, SVG Export Plug-In . SVG Version: 6.00 Build 0)  -->
<svg version="1.1" id="Layer_1" xmlns="http://www.w3.org/2000/svg" xmlns:xlink="http://www.w3.org/1999/xlink" x="0px" y="0px"
	 viewBox="0 0 300 133" style="enable-background:new 0 0 300 133;" xml:space="preserve">
<g>
	<path d="M20.5,32.2c0-7.2,0-13.6,0-20.4c53.3,0,106.7,0,160.4,0c0,6.7,0,13.2,0,20.2c-2.1,0.1-4,0.3-5.9,0.3c-18.3,0-36.7,0-55-0.1
		c-3.4,0-5.9,0.7-8.3,3.4C92.1,57.4,72.5,79.2,52,101.9c43.7,0,86.2,0,128.9,0c0,6.8,0,13,0,19.6c-53.4,0-106.7,0-160.5,0
		c0.1-8.4-1.3-16,6.3-23.7C47.1,77.3,66.2,55.4,85.8,34c0.3-0.3,0.4-0.8,0.8-1.8C64.6,32.2,42.9,32.2,20.5,32.2z"/>
	<path d="M193.4,121.7c0-36.8,0-73.2,0-110.4c16.1,1.1,32.4-2.4,48.1,2.3c20.2,6,32.5,19.9,36.8,40.4c5.5,26.3-6.4,52.1-29.8,62.7
		c-6.2,2.8-13.3,4.3-20.1,4.7C216.9,122.2,205.3,121.7,193.4,121.7z M214.3,32.2c0,23.4,0,46.6,0,69.7c29.1,3.3,44.1-15.7,44.4-35.1
		C258.9,48.9,245.4,27.8,214.3,32.2z"/>
	<path d="M110.8,76.8c6.6-7.2,12.2-13.5,18-19.6c0.7-0.7,2.1-1.1,3.1-1.1c16.1-0.1,32.2,0,49.1,0c0,6.5,0.1,12.7-0.2,18.9
		c0,0.7-2.8,1.8-4.3,1.9c-12.3,0.1-24.6,0-36.9,0C130.6,76.8,121.4,76.8,110.8,76.8z"/>
</g>
</svg>
